<svg width="1408" height="867" viewBox="0 0 1408 867" fill="none" xmlns="http://www.w3.org/2000/svg">
<path d="M1372.07 6.371L1403.86 48.0176L1404.51 48.929L1405.09 49.8838L1405.61 50.882L1406.07 51.915L1406.45 52.9826L1406.78 54.0763L1407.03 55.196L1407.21 56.3418L1407.32 57.4962L1407.37 58.6593V328.868L1407.3 330.395L1407.11 331.906L1406.79 333.381L1406.37 334.805L1405.83 336.176L1405.17 337.487L1404.41 338.728L1403.55 339.891L1402.59 340.959L1401.55 341.94L1373.73 365.341L1372.59 366.4L1371.55 367.572L1370.6 368.83L1369.79 370.185L1369.07 371.608L1368.48 373.11L1368.01 374.663L1367.67 376.261L1367.48 377.901L1367.41 379.576V486.444L1367.45 487.877L1367.6 489.283L1367.86 490.672L1368.2 492.026L1368.63 493.345L1369.17 494.621L1369.79 495.845L1370.49 497.017L1371.28 498.128L1372.15 499.161L1402.99 533.065L1403.79 534.02L1404.52 535.035L1405.17 536.111L1405.73 537.231L1406.23 538.403L1406.63 539.618L1406.94 540.859L1407.17 542.135L1407.31 543.429L1407.37 544.748V817.439L1407.31 818.767L1407.17 820.086L1406.93 821.38L1406.61 822.638L1406.18 823.871L1405.69 825.051L1405.1 826.188L1404.44 827.273L1403.69 828.298L1402.86 829.252L1371.96 862.419L1371.12 863.243L1370.25 863.99L1369.34 864.649L1368.38 865.24L1367.38 865.734L1366.35 866.142L1365.3 866.472L1364.23 866.707L1363.14 866.845L1362.03 866.898H786.678L785.228 866.811L783.82 866.568L782.44 866.168L781.102 865.63L779.821 864.936L778.61 864.111L777.484 863.148L776.427 862.063L775.47 860.856L774.625 859.537L767.726 847.637L766.797 846.196L765.755 844.885L764.614 843.696L763.375 842.654L762.052 841.752L760.658 840.996L759.208 840.406L757.715 839.972L756.166 839.703L754.589 839.616H652.707L650.932 839.729L649.215 840.059L647.539 840.597L645.948 841.344L644.442 842.272L643.034 843.383L641.738 844.659L640.57 846.109L639.528 847.697L638.655 849.433L634.924 857.87L634.121 859.467L633.178 860.934L632.093 862.262L630.911 863.434L629.615 864.458L628.221 865.309L626.757 865.995L625.236 866.49L623.645 866.793L622.026 866.898H546.079H48.2381L47.1821 866.845L46.1261 866.715L45.0983 866.507L44.0845 866.203L43.0989 865.821L42.1415 865.361L41.2122 864.823L40.3111 864.207L39.4522 863.521L38.6355 862.757L5.46307 829.278L4.57603 828.315L3.78754 827.273L3.06946 826.171L2.43586 825.008L1.90083 823.784L1.45027 822.517L1.09827 821.215L0.844825 819.878L0.689945 818.507L0.647705 817.126V545.052L0.689945 543.689L0.844825 542.344L1.08419 541.024L1.43619 539.731L1.87267 538.481L2.39363 537.283L2.99906 536.129L3.68899 535.026L4.47746 533.993L5.32227 533.03L38.0301 499.23L38.9594 498.18L39.8042 497.051L40.5645 495.854L41.2263 494.604L41.8035 493.284L42.2823 491.922L42.6483 490.524L42.9159 489.083L43.0848 487.616L43.1411 486.132V379.889L43.0567 378.161L42.8455 376.469L42.4794 374.82L41.9866 373.223L41.3671 371.695L40.6067 370.237L39.7338 368.865L38.7482 367.581L37.6499 366.409L36.4391 365.35L6.78659 341.905L5.68835 340.933L4.67459 339.848L3.75939 338.676L2.95683 337.418L2.26691 336.081L1.70371 334.666L1.23907 333.208L0.915225 331.689L0.704025 330.135L0.647705 328.555V58.9631L0.675865 57.7392L0.802585 56.5414L0.999705 55.3522L1.28131 54.1891L1.61923 53.052L2.04163 51.9497L2.53443 50.882L3.11171 49.8491L3.73123 48.877L4.43523 47.9482L38.4947 6.00644L39.3395 5.03428L40.2547 4.16628L41.2263 3.3764L42.24 2.69068L43.3101 2.10044L44.4224 1.61436L45.5488 1.23244L46.7175 0.954684L47.9143 0.781084L49.1111 0.729004H84.3533H223.253H602.258L603.849 0.824484L605.412 1.1196L606.918 1.597L608.369 2.25668L609.734 3.08996L611.016 4.07948L612.198 5.21656L613.268 6.50988L614.226 7.9334L615.043 9.48712L622.04 24.6511L622.927 26.3437L623.955 27.8974L625.124 29.2949L626.419 30.5448L627.813 31.6211L629.306 32.5238L630.883 33.2356L632.516 33.7651L634.22 34.0862L635.951 34.1904H774.09L775.864 34.0776L777.596 33.7477L779.258 33.2009L780.863 32.4631L782.369 31.5256L783.791 30.4146L785.087 29.1213L786.255 27.6717L787.283 26.0746L788.17 24.3299L794.534 9.78224L795.351 8.17644L796.294 6.70952L797.365 5.38148L798.561 4.201L799.857 3.17676L801.251 2.31744L802.715 1.63172L804.25 1.13696L805.827 0.833164L807.46 0.729004H1182.54H1325.55H1361.14L1362.39 0.789764L1363.63 0.972044L1364.83 1.26716L1366.01 1.6838L1367.15 2.2046L1368.24 2.83824L1369.29 3.57604L1370.28 4.40932L1371.21 5.34676L1372.07 6.371Z" fill="black"/>
</svg>
