<svg width="59" height="49" viewBox="0 0 59 49" fill="none" xmlns="http://www.w3.org/2000/svg">
<path d="M31.3366 22.1816L38.4172 33.8227C38.5079 33.9719 38.6699 34.0629 38.8444 34.0629H50.2745C50.6665 34.0629 50.9061 33.6324 50.6994 33.2993L31.1373 1.76624C30.3511 0.498909 28.5043 0.506914 27.7292 1.78102L0.849337 45.9604C0.0384295 47.2932 0.997835 49 2.55794 49H56.4963C58.0447 49 59.0058 47.3163 58.2185 45.9831L53.3673 37.7678C53.2774 37.6155 53.1137 37.522 52.9368 37.522H20.3779C19.9884 37.522 19.7485 37.0964 19.9501 36.7632L28.7717 22.1846C29.3546 21.2213 30.7514 21.2197 31.3366 22.1816Z" fill="white"/>
</svg>
