<svg width="208" height="62" viewBox="0 0 208 62" fill="none" xmlns="http://www.w3.org/2000/svg">
<path opacity="0.88" d="M6.81687 22.7722C7.18112 21.9969 1.28706 18.005 0.952539 13.5931C0.748277 10.8991 11.0647 10.6309 15.8843 9.75145C26.7312 7.80789 38.4213 8.9302 49.3996 8.09781C84.0157 5.47317 118.611 4.43841 153.181 1.81732C166.635 0.797194 180.215 -0.419205 193.56 1.4655C195.698 1.77065 203.793 1.95105 205.026 3.95959C206.588 6.59748 199.497 10.3583 198.59 11.408C197.899 12.2081 200.876 13.057 201.217 13.2178C203.221 14.2339 205.649 16.5256 206.778 18.4019C208.764 21.6616 199.229 23.5526 198.716 24.8528C198.641 25.0921 199.086 25.3854 199.233 25.4676C201.096 26.4943 205.633 27.4582 206.765 29.3814C209.481 33.9933 202.947 35.4168 203.004 36.1598C203.102 37.4606 209.792 40.1765 207.546 42.7762C206.902 43.5723 199.088 42.7636 196.518 42.9584C185.26 43.812 173.855 43.9759 162.65 45.5263C127.732 50.3693 93.1278 56.8705 57.9044 59.5412C49.4491 60.1823 40.9293 60.5947 32.5204 61.2322C26.2139 61.7104 19.0044 62.6774 12.8733 61.1336C10.1437 60.453 10.2233 57.784 9.5192 55.315C8.2973 50.9696 6.64314 47.1242 6.29449 42.5258C6.23462 41.7362 6.90996 37.0133 6.75957 36.8845C5.70457 35.9836 1.72402 33.0618 2.2697 30.9649C3.09445 27.5858 5.58706 25.7617 6.81687 22.7722Z" fill="#6FD351"/>
</svg>
